<?xml version="1.0" encoding="utf-8"?>
<!-- Generator: Adobe Illustrator 26.5.0, SVG Export Plug-In . SVG Version: 6.00 Build 0)  -->
<svg version="1.1" id="Layer_1" xmlns="http://www.w3.org/2000/svg" xmlns:xlink="http://www.w3.org/1999/xlink" x="0px" y="0px"
	 viewBox="0 0 1 1" style="enable-background:new 0 0 1 1;" xml:space="preserve">
<style type="text/css">
	.st0{fill:#020202;}
</style>
<path class="st0" d="M1,0.1c0,0,0,0.1,0,0.2c0,0.1,0,0.1,0,0.2l0,0c0,0.1,0,0.1,0,0.2c0,0.1,0,0.1,0,0.2l0,0l0,0l0,0l0,0l0,0H0.2
	l0,0l0,0l0,0l0,0l0,0l0,0l0,0l0,0l0,0l0-0.1l0,0l0,0l0,0l0,0l0,0l0,0l0,0l0,0l0,0c0,0,0,0,0,0c0,0,0,0,0-0.1h0c0,0,0,0,0-0.1
	c0,0,0,0,0,0l0,0l0,0l0,0l0,0l0,0l0,0l0,0l0,0l0,0l0-0.1l0,0l0,0l0,0l0,0l0,0l0,0l0,0l0,0l0,0h0.7l0,0L1,0.1L1,0.1L1,0.1L1,0.1"/>
</svg>
