<?xml version="1.0" encoding="UTF-8"?><svg id="Layer_1" xmlns="http://www.w3.org/2000/svg" viewBox="0 0 426.46 52.57"><defs><style>.cls-1{fill:none;stroke:#010101;stroke-miterlimit:2;stroke-width:.45px;}</style></defs><path class="cls-1" d="M8.004,6.32c-2.448,2.625-4.403,5.733-5.743,9.129C.905,18.887,.211,22.543,.225,26.178v.026c-.014,3.635,.68,7.29,2.036,10.727,1.339,3.392,3.294,6.497,5.74,9.119v-2.075s0,2.08,0,2.08l10.08,2.22,10.39,1.77,10.46,1.26,10.49,.78,10.53,.26H349.132l6.86-.37,6.86-.54,6.82-.71,6.81-.89,6.79-1.06,6.2-1.47,6.09-1.82,5.98-2.15,5.87-2.47,5.71-2.77,1.6-.63,1.46-.67,1.43-.76,1.38-.83,1.31-.92,1.26-1,1.2-1.06,1.14-1.15,.002,.019c.542-.598,1.004-1.27,1.371-1.994,.557-1.102,.885-2.304,.96-3.523l-.003,.005c-.075-1.225-.405-2.432-.967-3.538-.365-.717-.822-1.382-1.359-1.975l-.004-.004-1.14-1.13-1.2-1.07-1.26-.99-1.31-.92-1.38-.85-1.43-.74-1.46-.68-1.6-.62-5.71-2.79-5.87-2.46-5.98-2.14-6.09-1.82-6.2-1.49-6.69-.76-6.7-.58-6.72-.44-6.73-.26-6.73-.1H59.952l-10.53,.26-10.49,.78-10.46,1.26-10.39,1.79-10.08,2.2v2.08"/><line class="cls-1" x1="8.002" y1="6.335" x2="8.002" y2="46.055"/></svg>