<?xml version="1.0" encoding="utf-8"?>
<!-- Generator: Adobe Illustrator 26.5.0, SVG Export Plug-In . SVG Version: 6.00 Build 0)  -->
<svg version="1.1" id="Layer_1" xmlns="http://www.w3.org/2000/svg" xmlns:xlink="http://www.w3.org/1999/xlink" x="0px" y="0px"
	 viewBox="0 0 426.5 52.6" style="enable-background:new 0 0 426.5 52.6;" xml:space="preserve">
<style type="text/css">
	.st0{fill:#FFFFFF;}
</style>
<path class="st0" d="M418.6,6.5c2.4,2.6,4.4,5.7,5.7,9.1c1.4,3.4,2,7.1,2,10.7l0,0c0,3.6-0.7,7.3-2,10.7s-3.3,6.3-5.7,8.9l-10.1,2.2
	L398.1,50l-10.5,1.3l-10.5,0.8l-10.5,0.3H76.9l-6.8-0.2L63.4,52l-6.7-0.4L50,51l-6.7-0.8l-6.2-1.5L31,46.9l-6-2.1l-5.9-2.5l-5.7-2.8
	l-1.6-0.6l-1.5-0.7l-1.4-0.7l-1.4-0.8l-1.3-0.9l-1.3-1l-1.2-1.1l-1.1-1.1l0,0c-0.5-0.6-1-1.3-1.4-2c-0.6-1.1-0.9-2.3-1-3.5l0,0
	c0.1-1.2,0.4-2.4,1-3.5c0.4-0.7,0.8-1.4,1.4-2l0,0l1.1-1.1l1.2-1.1l1.3-1l1.3-0.9l1.4-0.8l1.4-0.8l1.5-0.7l1.6-0.6l5.7-2.8L25,9.3
	l6-2.2l6.1-1.8l6.2-1.5l6.8-1.1l6.8-0.9l6.8-0.7l6.9-0.5l6.9-0.4h289.2l10.4,0.3l10.5,0.8l10.5,1.2l10.4,1.8L418.6,6.5"/>
</svg>
