<?xml version="1.0" encoding="utf-8"?>
<!-- Generator: Adobe Illustrator 26.5.0, SVG Export Plug-In . SVG Version: 6.00 Build 0)  -->
<svg version="1.1" id="Layer_1" xmlns="http://www.w3.org/2000/svg" xmlns:xlink="http://www.w3.org/1999/xlink" x="0px" y="0px"
	 viewBox="0 0 426 52.1" style="enable-background:new 0 0 426 52.1;" xml:space="preserve">
<style type="text/css">
	.st0{fill:#FFFFFF;}
</style>
<g>
	<path class="st0" d="M2,15.2c1.3-3.4,3.3-6.5,5.7-9.1l0,0.2l10.1-2.2l10.4-1.8L38.7,1l10.5-0.8L59.7,0h289.8l6.7,0.1l6.7,0.3
		l6.7,0.4l6.7,0.6l6.7,0.8l6.2,1.5l6.1,1.8l6,2.1l5.9,2.5l5.7,2.8l1.6,0.6l1.5,0.7l1.4,0.7l1.4,0.8l1.3,0.9l1.3,1l1.2,1.1l1.1,1.1
		l0,0c0.5,0.6,1,1.3,1.4,2c0.6,1.1,0.9,2.3,1,3.5l0,0V0H0v25.9C0,22.3,0.7,18.7,2,15.2z"/>
	<path id="bottom-clip-path" class="st0" d="M425,28.9c-0.4,0.7-0.8,1.4-1.4,2l0,0l-1.1,1.2l-1.2,1.1l-1.3,1l-1.3,0.9l-1.4,0.8l-1.4,0.8l-1.5,0.7l-1.6,0.6
		l-5.7,2.8l-5.9,2.5l-6,2.2l-6.1,1.8l-6.2,1.5l-6.8,1.1l-6.8,0.9l-6.8,0.7l-6.9,0.5l-6.9,0.4H59.7l-10.5-0.3l-10.5-0.8l-10.5-1.3
		L17.9,48L7.8,45.8l0,0c-2.4-2.6-4.4-5.7-5.7-9.1C0.7,33.3,0,29.6,0,26v26.1h426V25.4C425.9,26.6,425.6,27.8,425,28.9z"/>
</g>
</svg>
