<?xml version="1.0" encoding="UTF-8"?><svg version="1.1" width="3px" height="3px" viewBox="0 0 3.0 3.0" xmlns="http://www.w3.org/2000/svg" xmlns:xlink="http://www.w3.org/1999/xlink"><g transform="translate(1.0 1.0)"><path d="M0.982,0.121 C0.988,0.171 0.992,0.23 0.995,0.295 C0.999,0.36 1,0.431 1,0.5 C1,0.569 0.998,0.64 0.995,0.705 C0.992,0.77 0.988,0.826 0.982,0.876 L0.958,0.918 L0.934,0.954 L0.909,0.979 L0.885,0.995 L0.86,1 L0.18,1 L0.164,0.996 L0.148,0.993 L0.133,0.985 L0.117,0.973 L0.101,0.958 L0.087,0.929 L0.072,0.895 L0.058,0.855 L0.044,0.807 L0.031,0.753 L0.027,0.742 L0.024,0.728 L0.02,0.715 L0.017,0.7 L0.014,0.682 L0.011,0.663 L0.008,0.642 L0.006,0.621 C0.005,0.609 0.003,0.596 0.002,0.583 C0.001,0.562 0,0.539 0,0.516 L0,0.516 C0,0.493 0.001,0.47 0.002,0.449 C0.003,0.435 0.004,0.422 0.006,0.41 L0.008,0.389 L0.011,0.368 L0.014,0.349 L0.017,0.332 L0.02,0.316 L0.024,0.301 L0.027,0.288 L0.031,0.276 L0.044,0.223 L0.058,0.175 L0.072,0.132 L0.087,0.098 L0.101,0.069 L0.117,0.048 L0.133,0.031 L0.149,0.018 L0.165,0.008 L0.181,0 L0.86,0 L0.885,0.006 L0.909,0.021 L0.934,0.044 L0.958,0.079 C0.958,0.079 0.982,0.121 0.982,0.121 Z" stroke="#020403" stroke-width="0.25" fill="none" stroke-miterlimit="10"></path></g></svg>